Coordinates
version=1
nRows=17
nColumns=24
inDegrees=yes

Units are S.I. units (second, meters, Newtons, ...)
Angles are in degrees.

endheader
time	pelvis_tilt	pelvis_list	pelvis_rotation	pelvis_tx	pelvis_ty	pelvis_tz	hip_flexion_r	hip_adduction_r	hip_rotation_r	knee_angle_r	ankle_angle_r	subtalar_angle_r	mtp_angle_r	hip_flexion_l	hip_adduction_l	hip_rotation_l	knee_angle_l	ankle_angle_l	subtalar_angle_l	mtp_angle_l	lumbar_extension	lumbar_bending	lumbar_rotation
      3.93500000	     32.66492696	     10.36082540	     12.39512866	     -0.31312419	      0.64320049	     -0.29502759	     -9.75785002	     -7.62206440	    -22.78936780	     -0.17276717	     11.88010543	      6.78766842	      0.00000000	    -58.51201748	     -4.04938158	     -1.06496529	    -11.87750654	     13.31544978	     17.47479888	      0.00000000	    -62.91659797	      4.24353776	    -13.45619763
      3.94000000	     32.88173381	     10.07536019	     12.66481493	     -0.30489922	      0.64265816	     -0.29502226	     -9.72362659	     -7.22989567	    -22.26264811	     -1.50643654	     11.62108191	      6.61118207	      0.00000000	    -58.69537389	     -4.72674644	     -1.12560457	    -13.14255854	     12.26693911	     17.21511940	      0.00000000	    -62.92031471	      4.80652153	    -13.48210616
      3.94500000	     33.19866301	      9.77893074	     12.92529327	     -0.29674108	      0.64220058	     -0.29494664	     -9.77314728	     -6.78024743	    -21.54914251	     -2.94690311	     11.17918430	      5.97787108	      0.00000000	    -58.86549561	     -5.42153589	     -1.21257800	    -14.59764762	     11.14574759	     16.83262268	      0.00000000	    -63.04099472	      5.37870063	    -13.39567054
      3.95000000	     33.53448979	      9.42787025	     13.11309649	     -0.28855423	      0.64173838	     -0.29481448	     -9.75168977	     -6.28644350	    -20.72435998	     -4.58361510	     10.69076754	      5.25943270	      0.00000000	    -58.99978333	     -6.08027058	     -1.34235428	    -16.12236693	      9.91628182	     16.45297420	      0.00000000	    -63.16996850	      5.93035985	    -13.26526452
      3.95500000	     33.82399312	      9.04890893	     13.18670192	     -0.28035739	      0.64128453	     -0.29453916	     -9.61245588	     -5.78562635	    -19.71952472	     -6.33708344	     10.08331641	      4.45975026	      0.00000000	    -59.00183260	     -6.64116088	     -1.63064466	    -17.76687662	      8.49078673	     16.02393481	      0.00000000	    -63.26384634	      6.37887448	    -13.06330523
      3.96000000	     34.11266735	      8.65896803	     13.39557048	     -0.27208318	      0.64088762	     -0.29439357	     -9.52060527	     -5.23055503	    -18.90595310	     -8.11587339	      9.50019140	      3.71540207	      0.00000000	    -58.89232009	     -7.29743953	     -1.74453214	    -19.56031592	      6.99336189	     15.31240061	      0.00000000	    -63.32168208	      6.94678834	    -12.93876087
      3.96500000	     34.33682793	      8.27136680	     13.35623096	     -0.26393212	      0.64044678	     -0.29392517	     -9.21654103	     -4.72625135	    -17.74460676	    -10.07602525	      8.85569159	      2.73007570	      0.00000000	    -58.63403013	     -7.73117520	     -2.08663161	    -21.45875816	      5.29697466	     14.62470823	      0.00000000	    -63.38244677	      7.25990175	    -12.67396442
      3.97000000	     34.62588238	      7.85213846	     13.56047191	     -0.25565481	      0.64010447	     -0.29371042	     -9.11227765	     -4.10212598	    -16.96526178	    -11.93103729	      8.32294212	      1.97959276	      0.00000000	    -58.33651542	     -8.38392347	     -2.24281832	    -23.47794116	      3.57323938	     13.61283737	      0.00000000	    -63.43834195	      7.81670732	    -12.52459742
      3.97500000	     34.79520165	      7.46337141	     13.40708419	     -0.24756269	      0.63967343	     -0.29302456	     -8.70488290	     -3.58280690	    -15.76637772	    -13.98851098	      7.82644758	      0.94140229	      0.00000000	    -57.83365797	     -8.69872644	     -2.61028621	    -25.59749836	      1.62411437	     12.67724504	      0.00000000	    -63.47577387	      7.98466195	    -12.19079762
      3.98000000	     35.05607302	      7.01233270	     13.53894636	     -0.23935087	      0.63935351	     -0.29264370	     -8.57068971	     -2.90175511	    -15.03412544	    -15.83574739	      7.48321237	      0.24553147	      0.00000000	    -57.32078081	     -9.30091760	     -2.85868238	    -27.82294634	     -0.26750975	     11.41458643	      0.00000000	    -63.52431807	      8.45290015	    -12.00763943
      3.98500000	     35.14464507	      6.62486284	     13.35305175	     -0.23128605	      0.63894150	     -0.29181738	     -8.11926581	     -2.36577580	    -13.98706078	    -17.86308382	      7.32216338	     -0.61998196	      0.00000000	    -56.55903651	     -9.57568147	     -3.25513688	    -30.11226757	     -2.37688052	     10.17901259	      0.00000000	    -63.48989165	      8.53173364	    -11.66295272
      3.99000000	     35.41709397	      6.15787177	     13.52510199	     -0.22313389	      0.63871841	     -0.29136134	     -8.08511926	     -1.62156832	    -13.49890564	    -19.58981691	      7.26926842	     -1.16077644	      0.00000000	    -55.89926552	    -10.24325462	     -3.52960261	    -32.45297861	     -4.35174054	      8.74880484	      0.00000000	    -63.55482248	      9.00381366	    -11.46473665
      3.99500000	     35.64649648	      5.72958468	     13.57690095	     -0.21512478	      0.63849687	     -0.29073330	     -8.00015031	     -0.93572044	    -12.96412671	    -21.30757052	      7.41156412	     -1.73169793	      0.00000000	    -55.12126174	    -10.77535848	     -3.80806213	    -34.84812586	     -6.36496710	      7.23140758	      0.00000000	    -63.62371285	      9.31690708	    -11.22290315
      4.00000000	     35.68532702	      5.36099175	     13.44896176	     -0.20725665	      0.63819096	     -0.28988434	     -7.68462892	     -0.39644234	    -12.37693401	    -23.06986523	      7.87489420	     -2.22453926	      0.00000000	    -54.06321395	    -11.07692089	     -4.08718260	    -37.32187919	     -8.33849685	      5.65655455	      0.00000000	    -63.56499518	      9.37765216	    -10.92383843
      4.00500000	     35.93372099	      4.82759716	     13.62337417	     -0.19924475	      0.63810412	     -0.28935074	     -7.80784278	      0.43673221	    -12.22686208	    -24.45462941	      8.33224073	     -2.54237311	      0.00000000	    -53.19328679	    -11.80429257	     -4.37873949	    -39.74519438	    -10.09078725	      4.16398165	      0.00000000	    -63.61714779	      9.84106463	    -10.63202123
      4.01000000	     36.15570619	      4.36492257	     13.73801594	     -0.19142585	      0.63807331	     -0.28875363	     -7.94477327	      1.17415281	    -12.09491815	    -25.78243093	      8.96926099	     -2.77920426	      0.00000000	    -52.23526174	    -12.41131680	     -4.57788356	    -42.18502494	    -11.69525691	      2.59352584	      0.00000000	    -63.68601197	     10.18418540	    -10.34352584
      4.01500000	     36.08877620	      4.03731106	     13.74986916	     -0.18388185	      0.63798047	     -0.28803671	     -7.79463839	      1.65097378	    -11.98809237	    -27.10496978	      9.87860473	     -2.82230884	      0.00000000	    -50.83955413	    -12.74697609	     -4.56225293	    -44.76031189	    -13.05062778	      1.04045426	      0.00000000	    -63.55471152	     10.29028719	    -10.14956754
